Coordinates
version=1
nRows=14
nColumns=40
inDegrees=yes

Units are S.I. units (second, meters, Newtons, ...)
Angles are in degrees.

endheader
time	pelvis_tilt	pelvis_list	pelvis_rotation	pelvis_tx	pelvis_ty	pelvis_tz	hip_flexion_r	hip_adduction_r	hip_rotation_r	knee_angle_r	knee_angle_r_beta	ankle_angle_r	subtalar_angle_r	mtp_angle_r	hip_flexion_l	hip_adduction_l	hip_rotation_l	knee_angle_l	knee_angle_l_beta	ankle_angle_l	subtalar_angle_l	mtp_angle_l	lumbar_extension	lumbar_bending	lumbar_rotation	arm_flex_r	arm_add_r	arm_rot_r	elbow_flex_r	pro_sup_r	wrist_flex_r	wrist_dev_r	arm_flex_l	arm_add_l	arm_rot_l	elbow_flex_l	pro_sup_l	wrist_flex_l	wrist_dev_l
     30.53000000	     -6.47031750	     -5.84127818	     11.45190447	      0.90165194	      0.91876320	      0.42802845	      1.66266839	      2.07902473	    -17.57000074	     16.20204150	     16.20204150	     17.10164550	     -7.76213709	      0.77199215	     29.21859322	     -3.22973549	      4.75109506	     26.35326424	     26.35326424	      8.56668948	    -11.86600448	      1.56524635	     -8.23291369	      1.35188377	      4.33748618	     74.20028110	    -15.26519581	      5.80976402	     91.77012821	     44.26551226	      0.00000000	      0.00000000	    -19.25860453	    -12.16886393	     12.75690876	     34.00288496	     44.68092160	      0.00000000	      0.00000000
     30.55228571	     -6.59885707	     -5.63121665	     11.17103892	      0.90297319	      0.91990046	      0.42441178	      1.79472044	      1.46341272	    -17.48046430	     17.03371959	     17.03371959	     16.70501423	     -7.86042893	      0.63897942	     28.54697931	     -3.07333528	      3.98496108	     25.88971127	     25.88971127	      9.13233463	    -11.03819573	      1.33073033	     -8.11498786	      1.00072258	      4.41829153	     73.53534253	    -15.39613754	      5.90795442	     91.77305516	     44.27470269	      0.00000000	      0.00000000	    -18.15195659	    -12.56560798	     12.62091544	     33.98684014	     44.73661172	      0.00000000	      0.00000000
     30.57457143	     -6.60866350	     -5.65395915	     11.02408531	      0.90428028	      0.92108349	      0.42079417	      1.71634841	      1.18580360	    -17.47561177	     17.57664758	     17.57664758	     16.21168692	     -7.94615207	      0.67509674	     27.92430436	     -3.01830024	      3.75560151	     25.61857946	     25.61857946	      9.57316422	    -10.86700970	      1.19043855	     -8.06122063	      1.03640225	      4.21839235	     72.66710953	    -15.15506973	      6.11120036	     91.62857850	     44.27278949	      0.00000000	      0.00000000	    -16.99468766	    -12.98913594	     12.49799074	     34.20673545	     44.77340695	      0.00000000	      0.00000000
     30.59685714	     -6.67934269	     -5.34889786	     10.73059946	      0.90565027	      0.92230954	      0.41724825	      1.92058294	      0.45532623	    -17.22710435	     18.66620862	     18.66620862	     15.80846050	     -8.29110341	      0.47522930	     27.05802403	     -2.74210976	      3.01810292	     24.95608774	     24.95608774	      9.95833009	    -10.27768150	      1.01075771	     -7.93323309	      0.65899852	      4.18995758	     71.27087840	    -15.19063635	      6.10217697	     91.32937524	     44.28629164	      0.00000000	      0.00000000	    -15.81223574	    -13.37527495	     12.36898555	     34.11492982	     44.81950440	      0.00000000	      0.00000000
     30.61914286	     -6.70322500	     -5.23569124	     10.52236466	      0.90694424	      0.92327630	      0.41371728	      2.08956427	     -0.03563309	    -17.00485308	     19.66103371	     19.66103371	     15.10293012	     -8.84969949	     -0.46210178	     26.36663750	     -2.59882885	      2.54182337	     24.58462239	     24.58462239	     10.22350042	     -9.92538050	      0.49653222	     -7.80257668	      0.58800923	      4.58078886	     69.40239891	    -15.40906664	      5.22336806	     91.52548927	     44.35509060	      0.00000000	      0.00000000	    -13.49886108	    -13.50038499	     12.34247413	     32.34260799	     44.93372268	      0.00000000	      0.00000000
     30.64142857	     -6.61086904	     -5.05797329	     10.30505403	      0.90842255	      0.92427681	      0.41009559	      2.17134952	     -0.61570959	    -16.81028202	     20.79655516	     20.79655516	     14.72074100	     -9.16374342	     -0.72208389	     25.53969551	     -2.34707204	      2.23964625	     24.24997506	     24.24997506	     10.52616438	     -9.92022872	      0.43823460	     -7.76630956	      0.51571291	      4.36051701	     67.39461604	    -15.22797078	      5.44545125	     90.89852939	     44.36854980	      0.00000000	      0.00000000	    -12.13800333	    -13.82903072	     12.26676231	     32.47202862	     44.97513533	      0.00000000	      0.00000000
     30.66371429	     -6.51427116	     -4.86719607	     10.07074308	      0.90987891	      0.92495064	      0.40638788	      2.40387698	     -1.26490804	    -16.53954563	     22.22635616	     22.22635616	     14.33101882	     -9.59898551	     -1.23538565	     24.79153416	     -2.03888437	      2.04516760	     24.06220948	     24.06220948	     10.78667288	    -10.14181230	      0.40948169	     -7.70754567	      0.50082823	      4.26047125	     65.03519379	    -15.06466654	      5.40962000	     89.97766413	     44.39999243	      0.00000000	      0.00000000	    -10.45609763	    -14.06172503	     12.24721248	     32.36542865	     45.01644522	      0.00000000	      0.00000000
     30.68600000	     -6.20405006	     -4.76931984	      9.82093487	      0.91159427	      0.92553853	      0.40266876	      2.41407365	     -1.78580968	    -16.26386969	     23.65284710	     23.65284710	     13.96241628	     -9.95522889	     -1.70980094	     23.98693086	     -1.83898491	      1.99518126	     24.19387269	     24.19387269	     11.15698072	    -10.53806446	      0.34954887	     -7.83366420	      0.70225773	      4.09677765	     62.29580247	    -14.70946806	      5.57527619	     88.98395791	     44.42123572	      0.00000000	      0.00000000	     -8.77053429	    -14.19485643	     12.24463119	     32.40045601	     45.04985882	      0.00000000	      0.00000000
     30.70828571	     -6.13981957	     -4.53062475	      9.48956453	      0.91305111	      0.92534266	      0.39882059	      3.07386541	     -2.63411893	    -15.82262562	     25.82068878	     25.82068878	     13.41014962	    -10.76238659	     -3.06779713	     23.46601112	     -1.36748666	      2.07940047	     24.37297714	     24.37297714	     11.37431754	    -11.53442849	      0.59327996	     -7.63424708	      0.74422669	      4.27806017	     59.25267777	    -14.56879531	      5.00300800	     87.07051943	     44.50236950	      0.00000000	      0.00000000	     -6.40401272	    -14.12884425	     12.45857533	     31.62902948	     45.07578190	      0.00000000	      0.00000000
     30.73057143	     -5.73319926	     -4.37376313	      9.15652747	      0.91489866	      0.92528041	      0.39491497	      3.17656677	     -3.28602255	    -15.38524424	     27.49822263	     27.49822263	     11.62354339	    -12.04219111	     -7.32895432	     22.75948296	     -0.97824564	      2.44506412	     24.93402666	     24.93402666	     11.91371354	    -12.72086021	      1.44070414	     -7.73651906	      1.01402156	      4.51228043	     55.75834754	    -13.81119064	      3.58793082	     84.67961097	     44.65715681	      0.00000000	      0.00000000	     -3.11475822	    -13.62019337	     13.67216180	     28.35070619	     45.02588467	      0.00000000	      0.00000000
     30.75285714	     -5.40581287	     -4.21944626	      8.72652689	      0.91667640	      0.92443046	      0.39107519	      3.88339215	     -4.08655703	    -14.80514720	     30.24217839	     30.24217839	     11.04572451	    -12.90043151	     -8.41636981	     22.31780061	     -0.66307482	      2.44472860	     25.78977972	     25.78977972	     12.41491727	    -13.60063310	      1.46689428	     -7.83142424	      1.30440837	      4.63753581	     52.08150492	    -13.73709886	      3.85436600	     82.64730678	     44.70714714	      0.00000000	      0.00000000	     -1.09954840	    -13.49182370	     13.76778582	     28.84618632	     45.05513467	      0.00000000	      0.00000000
     30.77514286	     -4.92451376	     -4.07871601	      8.26363796	      0.91856992	      0.92345101	      0.38716786	      4.47111580	     -4.84509993	    -14.16202486	     32.91963343	     32.91963343	      9.22092580	    -14.63237059	    -12.20025658	     21.81483713	     -0.27784297	      2.73451135	     26.89507880	     26.89507880	     13.36975818	    -14.83781955	      2.95206527	     -7.96274154	      1.70037435	      4.73926712	     48.58326614	    -12.88384536	      2.86101805	     78.49575492	     44.89064184	      0.00000000	      0.00000000	      1.61306953	    -13.07888479	     14.91922809	     27.58012781	     44.97727411	      0.00000000	      0.00000000
     30.79742857	     -4.50137248	     -3.94940872	      7.71560969	      0.92040758	      0.92181461	      0.38342315	      5.49649897	     -5.70273550	    -13.53615244	     36.27915884	     36.27915884	      7.62726369	    -16.12629568	    -14.93512512	     21.54500120	      0.03261492	      2.74230275	     28.31381224	     28.31381224	     14.58708801	    -15.65739843	      4.35637017	     -8.12436056	      2.11958148	      4.82505784	     44.83748091	    -12.29018476	      2.47648103	     74.83786726	     45.03876974	      0.00000000	      0.00000000	      3.93907299	    -12.85576412	     16.12502202	     27.49196395	     44.89038642	      0.00000000	      0.00000000
     30.81971429	     -4.04325639	     -3.78703948	      7.09135246	      0.92222692	      0.91976795	      0.37976821	      6.84365671	     -6.61344449	    -12.75293921	     40.27410278	     40.27410278	      6.62702603	    -17.19227940	    -15.37679467	     21.21486542	      0.34474984	      2.59927148	     29.65672540	     29.65672540	     15.28969548	    -16.61338773	      4.33479365	     -8.42037295	      2.50560447	      5.05873215	     40.75682161	    -12.37183767	      2.63671263	     71.90651585	     45.11679530	      0.00000000	      0.00000000	      6.11712027	    -12.53218607	     16.20479570	     28.36211750	     44.92268169	      0.00000000	      0.00000000
